<?xml version="1.0" encoding="utf-8"?>
<!-- Generator: Adobe Illustrator 25.2.1, SVG Export Plug-In . SVG Version: 6.00 Build 0)  -->
<svg version="1.1" id="Capa_1" xmlns="http://www.w3.org/2000/svg" xmlns:xlink="http://www.w3.org/1999/xlink" x="0px" y="0px"
	 viewBox="0 0 497 244.6" style="enable-background:new 0 0 497 244.6;" xml:space="preserve">
<style type="text/css">
	.st0{fill:#4AC2C0;}
	.st1{fill:url(#SVGID_1_);}
	.st2{fill:url(#SVGID_2_);}
	.st3{fill:url(#SVGID_3_);}
	.st4{fill:url(#SVGID_4_);}
	.st5{fill:url(#SVGID_5_);}
	.st6{fill:url(#SVGID_6_);}
	.st7{fill:url(#SVGID_7_);}
	.st8{fill:url(#SVGID_8_);}
	.st9{fill:url(#SVGID_9_);}
	.st10{fill:url(#SVGID_10_);}
	.st11{fill:url(#SVGID_11_);}
	.st12{fill:url(#SVGID_12_);}
	.st13{fill:url(#SVGID_13_);}
	.st14{fill:url(#SVGID_14_);}
	.st15{fill:url(#SVGID_15_);}
	.st16{fill:url(#SVGID_16_);}
	.st17{fill:url(#SVGID_17_);}
	.st18{fill:url(#SVGID_18_);}
	.st19{display:none;fill:none;}
</style>
<path class="st0" d="M57.3,16.8c-0.2-0.8-0.4-1.5-0.4-2.3c-0.1-2.7,1.5-5.4,3.8-6.7c4.2-2.4,8.1,0,11.9,1.8
	c3.3,1.6,6.7,3.2,10.1,4.9c9,4.4,17.9,8.7,26.9,13.1c7.4,3.6,14.8,7.2,22.2,10.8c3.4,1.7,6.3,3.1,8.9,6.1c1.5,1.7,2.6,3.7,3,5.9
	s-0.1,4.6-1.6,6.3s-4,2.5-6.1,1.7c0.6,0.2,0.1,9.7,0.1,10.5c0.1,5.1,0.1,10.1,0.2,15.2c0.1,4.5,0.1,9,0.2,13.5l3.4,9.1
	c1.3,3.6,3.5,7,5.2,10.4c1.8,3.6,3.6,7.3,5.3,11c3.5,7.5,6.8,15.2,9.5,23c2.2,6.6,4.1,13.2,5.3,20.1c1.2,6.6,2.7,14.4,1.2,21.1
	c-0.6,2.8-1.9,5.4-3.5,7.8c-1.5,2.2-3.2,4.1-5.3,5.8c-4.2,3.3-9.5,4.5-14.4,6.1c-5.9,1.9-11.9,3.5-17.9,5.2
	c-15.5,4.4-31,8.6-46.5,12.8c-6.8,2.3-13.9,3.7-20.8,5.6c-6.7,1.8-13.4,3.8-20.3,4.4c-5.6,0.5-11.4-0.1-16.5-2.4
	c-3.2-1.4-6-3.5-8.8-5.7c-2.7-2.2-5.4-4.5-7-7.6c-1.6-2.9-2.1-6.3-2-9.6c0.3-14.8,9.1-27.6,15.4-40.5c6.8-13.8,14-27.3,21.2-40.8
	C50,115,59.7,96.5,69.5,78l-1.9-48.2c-2.6-2-5-4.3-7-6.9C59.6,20.9,58.1,18.9,57.3,16.8z"/>
<linearGradient id="SVGID_1_" gradientUnits="userSpaceOnUse" x1="177.6181" y1="161.6511" x2="121.6297" y2="129.3262">
	<stop  offset="0" style="stop-color:#4762B2"/>
	<stop  offset="1" style="stop-color:#4AC2C0"/>
</linearGradient>
<path class="st1" d="M177.4,111.1c0.1,0.2,0,0.5-0.2,0.9c-0.6,1.3-1.3,2.6-1.9,3.8c-1.3,2.5-2.6,5.1-3.8,7.6
	c-1.5,3.1-3.1,6.1-4.6,9.1c-0.9,1.9-1.9,3.8-2.8,5.7c-0.2,0.3-0.4,0.7-0.7,0.9c-0.3,0.1-0.6,0.1-0.9,0.1c-4.1-0.3-8.6-1.2-12.7,0.2
	c-2.2,0.8-4.1,2.3-5,4.4c-0.4,0.9-0.6,1.9-0.3,2.9c0.3,1.2,1.2,2.2,2.3,2.8s2.3,0.9,3.6,1.1c3.8,0.5,7.6-0.1,11.2-1.6
	c1.2,8.1,3,16.1,4.5,24.2c0.3,1.6,0.6,3.3,0.9,4.9c0.3,1.8,0.1,2.2-1.3,3.4c-2.5,2-5.2,3.8-8.2,5.1c-4.2,1.8-8.9,2.6-13.5,2.7
	c-3.1,0.1-6.2-0.1-9.2-1.1c-3.2-1-6.2-2.9-8.7-5.2c-8.8-8.3-10-21.3-9.1-32.7c0.6-7.4,2.4-14.9,5.4-21.7c1.9-4.3,4.4-8.4,7.4-12
	c10.1-11.9,29.2-18.5,43.2-9.4c0.8,0.6,1.6,1.2,2.4,1.8C175.8,109.4,177.2,110.4,177.4,111.1z"/>
<linearGradient id="SVGID_2_" gradientUnits="userSpaceOnUse" x1="233.0913" y1="160.4469" x2="179.6938" y2="129.6179">
	<stop  offset="0" style="stop-color:#4762B2"/>
	<stop  offset="1" style="stop-color:#4AC2C0"/>
</linearGradient>
<path class="st2" d="M237.3,131.4c-0.5-6.4-2-12.8-5.4-18.3c-2.6-4.2-6.2-7.8-10.7-9.9c-5.1-2.4-10.9-1.9-16.1-0.1h-0.7
	c-12.2,5.7-20.5,16.4-25,29c-3.1,8.9-4.8,18.7-4.1,28.1c0.6,7.2,3,14.5,7.6,20s11.9,9.2,19.1,8.6c7.4-0.5,13.9-5.2,18.9-10.6
	C232.8,165.9,238.6,148.4,237.3,131.4z M212.5,146.5c-0.5,2-1.5,3.9-3.1,5.2c-0.8,0.7-1.8,1.1-2.8,1.2c-1.2,0.1-2.4-0.5-3.2-1.3
	c-2.3-2.2-2.1-5.8-1.6-8.7c0.6-3.3,1.9-6.7,4.6-8.8c0.6-0.5,1.3-0.8,1.9-0.8c0.5,0,1,0.1,1.6,0.4
	C214.6,136.4,213.7,142.1,212.5,146.5z"/>
<linearGradient id="SVGID_3_" gradientUnits="userSpaceOnUse" x1="288.3632" y1="156.2139" x2="238.7815" y2="127.5879">
	<stop  offset="0" style="stop-color:#4762B2"/>
	<stop  offset="1" style="stop-color:#4AC2C0"/>
</linearGradient>
<path class="st3" d="M252.4,104l-12.8,83.5c0,0,24.8,0.2,24.8,0s3.8-26.5,3.8-26.5h17.4l1.5-20.5l-15.4-0.2l2.2-16.2l22.2,0.5
	l2.7-21.8L252.4,104z"/>
<linearGradient id="SVGID_4_" gradientUnits="userSpaceOnUse" x1="365.4256" y1="174.0457" x2="296.6494" y2="134.3378">
	<stop  offset="0" style="stop-color:#4762B2"/>
	<stop  offset="1" style="stop-color:#4AC2C0"/>
</linearGradient>
<path class="st4" d="M357.6,187.6l-7.5-84.7h-35.3L281,187.6h26l5.1-13.9l19.8,0.5v13.4H357.6L357.6,187.6z M320.2,152.9l7.7-18.8
	l1,18.8H320.2z"/>
<linearGradient id="SVGID_5_" gradientUnits="userSpaceOnUse" x1="420.2143" y1="161.6039" x2="365.5583" y2="130.0482">
	<stop  offset="0" style="stop-color:#4762B2"/>
	<stop  offset="1" style="stop-color:#4AC2C0"/>
</linearGradient>
<path class="st5" d="M423.4,108c-3.2,8.7-6.3,17.4-9.5,26.1c-1.4-4.2-4.5-7.8-8.4-9.8c-1.7-0.9-3.6-1.4-5.5-1.2s-3.7,1.6-4.1,3.5
	c-0.3,1.5,0.3,3.1,1.4,4.3c1,1.2,2.4,2,3.7,2.8c3.4,2,6.8,3.9,9.7,6.6c3,2.7,4.9,6.1,5.9,10.1c0.4,1.6,0.6,3.3,0.7,5
	c0.3,7.6-1.9,15.5-6.2,21.8c-2.9,4.2-6.9,7.7-11.5,9.7c-6.4,2.8-13.6,2.8-20.6,2.6c-3.6-0.1-7.1-0.8-10.5-2
	c-3.5-1.2-6.3-3.1-9.4-5.1c3.6-9.2,7.3-18.4,10.9-27.7c-0.1,0.3,0.3,1.2,0.4,1.5c0.2,0.6,0.4,1.1,0.6,1.7c0.5,1.1,1,2.1,1.7,3.1
	c1.3,1.9,3,3.6,5,4.9c1.2,0.7,2.4,1.3,3.8,1.5s2.8-0.1,3.9-1.1c1.3-1.2,1.7-3.2,1.2-5s-1.6-3.2-2.9-4.5c-2.9-2.9-6.6-4.9-9.5-7.9
	c-2.7-2.8-4.4-6.7-5.1-10.5c-0.3-1.4-0.5-2.8-0.5-4.1c-0.3-7.9,2.6-15.8,7.7-21.8c3.3-3.9,7.5-7,12.3-9c7.7-2.2,15.5-2.6,23.3-1.3
	c4.4,1.2,8.4,2.8,12,5.4"/>
<linearGradient id="SVGID_6_" gradientUnits="userSpaceOnUse" x1="498.0432" y1="174.0981" x2="429.061" y2="134.2712">
	<stop  offset="0" style="stop-color:#4762B2"/>
	<stop  offset="1" style="stop-color:#4AC2C0"/>
</linearGradient>
<path class="st6" d="M483,103.2h-36l-33.5,84.3c0,0,25,0.8,25.8,0.6s5.4-14.1,5.4-14.1l19.7-0.2v14.4c0,0,25.5,0.4,25.5,0
	C489.9,187.7,483,103.2,483,103.2z M452.4,153.4l7.9-20l2.4,20H452.4z"/>
<linearGradient id="SVGID_7_" gradientUnits="userSpaceOnUse" x1="188.011" y1="80.6043" x2="161.1024" y2="65.0686">
	<stop  offset="0" style="stop-color:#4762B2"/>
	<stop  offset="1" style="stop-color:#4AC2C0"/>
</linearGradient>
<polygon class="st7" points="166.8,55.2 166.8,85.5 185.3,85.3 185.3,80.5 173.7,80.5 173.7,55.2 "/>
<linearGradient id="SVGID_8_" gradientUnits="userSpaceOnUse" x1="214.7415" y1="81.9175" x2="190.0829" y2="67.6808">
	<stop  offset="0" style="stop-color:#4762B2"/>
	<stop  offset="1" style="stop-color:#4AC2C0"/>
</linearGradient>
<path class="st8" d="M203.6,55.7H197c0,0-9.9,30.3-9.8,30.1c0.2-0.2,5.8,0,5.8,0l2.4-8.7h8.4l2.7,8.7h6L203.6,55.7z M195.8,73.1
	l3.6-12.5l4.6,12.5H195.8z"/>
<linearGradient id="SVGID_9_" gradientUnits="userSpaceOnUse" x1="237.8458" y1="78.4787" x2="211.6065" y2="63.3294">
	<stop  offset="0" style="stop-color:#4762B2"/>
	<stop  offset="1" style="stop-color:#4AC2C0"/>
</linearGradient>
<path class="st9" d="M231.2,69.4c2.2-1,4.1-2.6,4.6-5.1c0.7-2.4-0.2-5-1.7-6.8c-0.9-0.9-1.9-1.7-3.1-2.1c-1.4-0.3-14.7-0.2-14.7-0.2
	v30.1c0.2-0.5,6.7,0,7.4,0c3.3,0,8,0.9,10.6-1.5c1.2-1,2.1-2.6,2.6-4.3c0.5-1.9,0.7-3.8,0-5.6C235.8,71.6,233.8,69.7,231.2,69.4z
	 M227.1,80.7c-0.7,0.2-1.4,0.2-2.1,0.2c-0.2,0-3.1,0-3.1,0v-8.7c0,0,3.8-0.2,4.1-0.2c1,0.2,2.1,0.3,2.9,1c1,0.9,1.7,2.1,1.7,3.4
	c0,1.4-0.7,2.6-1.9,3.4C228.3,80.3,227.8,80.7,227.1,80.7z M227.4,67.8c-0.3,0-0.5,0-0.9,0c-1.5,0-2.9,0-4.3,0v-8.7c0,0,2.7,0,2.9,0
	c1.4,0,2.6,0,3.8,0.7c1.7,1,2.4,3.4,1.7,5.3c-0.3,0.9-1,1.5-1.7,2.1C228.3,67.5,227.9,67.8,227.4,67.8z"/>
<linearGradient id="SVGID_10_" gradientUnits="userSpaceOnUse" x1="266.1591" y1="77.4311" x2="241.096" y2="62.9608">
	<stop  offset="0" style="stop-color:#4762B2"/>
	<stop  offset="1" style="stop-color:#4AC2C0"/>
</linearGradient>
<path class="st10" d="M266.3,62.9C266.1,62.9,266.1,62.9,266.3,62.9c-0.7-1.7-1.7-3.1-3.1-4.3c-1.5-1.4-3.4-2.2-5.3-2.7
	c-4.8-1.4-10.8-0.5-14.4,3.4c-0.2,0.2-0.3,0.3-0.5,0.5c-1,1.4-1.7,2.9-2.2,4.5c-1.5,5-1.5,10.6,1.4,15.1c0.9,1.2,1.7,2.2,2.9,3.1
	c3.9,3.1,9.1,3.8,13.7,1.9c3.1-1.2,5.6-3.8,7.2-6.7c1.2-2.4,1.7-5,1.7-7.5C267.6,67.8,267.1,65.1,266.3,62.9z M260.6,75.7
	c-0.3,0.7-0.7,1.4-1,1.9c-0.7,1-1.5,1.7-2.7,2.2s-2.7,0.5-3.9,0.5c-1.4-0.2-2.7-0.3-3.9-1.4c-1-0.9-1.5-2.1-1.9-3.3
	c-0.9-2.4-1-5.1-0.9-7.7c0.3-2.4,0.9-5,2.7-6.5c1-0.9,2.2-1.4,3.4-1.4c2.1-0.3,4.1,0.3,5.8,1.5c2.4,1.9,3.4,5.1,3.4,8.2
	C261.5,71.8,261.3,73.8,260.6,75.7z"/>
<linearGradient id="SVGID_11_" gradientUnits="userSpaceOnUse" x1="367.4591" y1="77.4311" x2="342.396" y2="62.9609">
	<stop  offset="0" style="stop-color:#4762B2"/>
	<stop  offset="1" style="stop-color:#4AC2C0"/>
</linearGradient>
<path class="st11" d="M367.6,62.9L367.6,62.9c-0.7-1.7-1.7-3.1-3.1-4.3c-1.5-1.4-3.4-2.2-5.3-2.7c-4.8-1.4-10.8-0.5-14.4,3.4
	c-0.2,0.2-0.3,0.3-0.5,0.5c-1,1.4-1.7,2.9-2.2,4.5c-1.5,5-1.5,10.6,1.4,15.1c0.9,1.2,1.7,2.2,2.9,3.1c3.9,3.1,9.1,3.8,13.7,1.9
	c3.1-1.2,5.6-3.8,7.2-6.7c1.2-2.4,1.7-5,1.7-7.5C369,67.8,368.6,65.1,367.6,62.9z M362,75.7c-0.3,0.7-0.7,1.4-1,1.9
	c-0.7,1-1.5,1.7-2.7,2.2s-2.6,0.5-3.9,0.5c-1.4-0.2-2.7-0.3-3.9-1.4c-1-0.9-1.5-2.1-1.9-3.3c-0.9-2.4-1-5.1-0.9-7.7
	c0.3-2.4,0.9-5,2.7-6.5c1-0.9,2.2-1.4,3.4-1.4c2.1-0.3,4.1,0.3,5.8,1.5c2.6,1.9,3.4,5.1,3.4,8.2C363,71.8,362.6,73.8,362,75.7z"/>
<linearGradient id="SVGID_12_" gradientUnits="userSpaceOnUse" x1="433.5591" y1="77.4311" x2="408.496" y2="62.9609">
	<stop  offset="0" style="stop-color:#4762B2"/>
	<stop  offset="1" style="stop-color:#4AC2C0"/>
</linearGradient>
<path class="st12" d="M433.7,62.9L433.7,62.9c-0.7-1.7-1.7-3.1-3.1-4.3c-1.5-1.4-3.4-2.2-5.3-2.7c-4.8-1.4-10.8-0.5-14.4,3.4
	c-0.2,0.2-0.3,0.3-0.5,0.5c-1,1.4-1.7,2.9-2.2,4.5c-1.5,5-1.5,10.6,1.4,15.1c0.9,1.2,1.7,2.2,2.9,3.1c3.9,3.1,9.1,3.8,13.7,1.9
	c3.1-1.2,5.6-3.8,7.2-6.7c1.2-2.4,1.7-5,1.7-7.5C435.2,67.8,434.7,65.1,433.7,62.9z M428,75.7c-0.3,0.7-0.7,1.4-1,1.9
	c-0.7,1-1.5,1.7-2.7,2.2s-2.6,0.5-3.9,0.5c-1.4-0.2-2.7-0.3-3.9-1.4c-1-0.9-1.5-2.1-1.9-3.3c-0.9-2.4-1-5.1-0.9-7.7
	c0.3-2.4,0.9-5,2.7-6.5c1-0.9,2.2-1.4,3.4-1.4c2.1-0.3,4.1,0.3,5.8,1.5c2.6,1.9,3.4,5.1,3.4,8.2C429.1,71.8,428.9,73.8,428,75.7z"/>
<linearGradient id="SVGID_13_" gradientUnits="userSpaceOnUse" x1="295.3653" y1="79.9906" x2="267.7647" y2="64.0554">
	<stop  offset="0" style="stop-color:#4762B2"/>
	<stop  offset="1" style="stop-color:#4AC2C0"/>
</linearGradient>
<path class="st13" d="M286.1,71.3c0.7-0.5,1.7-0.9,2.4-1.5c0.7-0.5,1.4-1.4,2.1-2.1c1-1.5,1.7-3.6,1.4-5.5c-0.7-3.6-3.6-5.5-7-5.8
	c-4.1-0.3-8.4-0.2-12.7-0.2v29.1l4.8,0.2c0-2.2,0-4.3,0-6.5c0-1.4,0-2.9,0-4.3c0-0.5,0-0.9,0-1.4s0.2-0.5,0.5-0.5c0.5,0,1.2,0,1.7,0
	c0.9,0,1.5,0,2.4,0s1,0,1.7,0.7c1.4,1.7,2.2,3.8,2.9,5.8c0.3,1,0.7,2.1,0.9,3.1c0.2,0.5,0.2,1,0.3,1.5c0,0.3,0,1.2,0.3,1.4
	c0.2,0.2,0.5,0,0.7,0c1.4,0,2.6,0,3.8,0c-0.2,0-0.3-3.3-0.5-3.6c-0.2-1.5-0.7-2.9-1-4.3c-0.3-1.2-0.9-2.4-1.5-3.4
	c-0.3-0.5-0.9-1.2-1.4-1.5C287.5,71.8,286.8,71.6,286.1,71.3z M283.2,68.7c-1,0.3-2.2,0.2-3.4,0.2c-0.2,0-2.4,0-2.4,0v-9.6
	c0,0.2,2.2,0,2.4,0c1.4,0,2.9-0.3,4.3,0.3c1.2,0.5,2.2,1.9,2.6,3.1c0.3,0.9,0.2,1.9,0,2.7c-0.3,1.2-1.2,2.4-2.4,3.1
	C283.7,68.5,283.4,68.7,283.2,68.7z"/>
<linearGradient id="SVGID_14_" gradientUnits="userSpaceOnUse" x1="396.4866" y1="79.2538" x2="368.886" y2="63.3185">
	<stop  offset="0" style="stop-color:#4762B2"/>
	<stop  offset="1" style="stop-color:#4AC2C0"/>
</linearGradient>
<path class="st14" d="M387,70.6c0.7-0.5,1.7-0.9,2.4-1.5c0.7-0.5,1.4-1.4,2.1-2.1c1-1.5,1.7-3.6,1.4-5.5c-0.2-1.4-0.9-2.7-1.9-3.8
	c-0.9-0.9-1.9-1.4-2.9-1.9c-1.2-0.3-2.2-0.3-3.4-0.3c-2.1,0-3.9,0-6,0c-1.7,0-3.4,0-5.3,0v29.1l4.8,0.2c0-2.2,0-4.3,0-6.5
	c0-1.4,0-2.9,0-4.3c0-0.5,0-0.9,0-1.4s0.2-0.5,0.5-0.5c0.5,0,1.2,0,1.7,0c0.9,0,1.5,0,2.4,0s1,0,1.7,0.7c1.4,1.7,2.2,3.8,2.9,5.8
	c0.3,1,0.7,2.1,0.9,3.1c0.2,0.5,0.2,1,0.3,1.5c0,0.3,0,1.2,0.3,1.4c0.2,0.2,0.5,0,0.7,0c1.4,0,2.6,0,3.8,0c0,0-0.3-3.3-0.5-3.6
	c-0.2-1.5-0.7-2.9-1-4.3c-0.3-1.2-0.9-2.4-1.5-3.4c-0.3-0.5-0.9-1.2-1.4-1.5C388.3,71.3,387.6,71.1,387,70.6z M384,68.2
	c-1,0.3-2.2,0.2-3.4,0.2c-0.2,0-2.4,0-2.4,0v-9.6c0,0.2,2.2,0,2.4,0c1.4,0,2.9-0.3,4.3,0.3c1.2,0.5,2.2,1.9,2.6,3.1
	c0.3,0.9,0.2,1.9,0,2.7c-0.3,1.2-1.2,2.4-2.4,3.1C384.6,67.8,384.4,68,384,68.2z"/>
<linearGradient id="SVGID_15_" gradientUnits="userSpaceOnUse" x1="322.8129" y1="82.1601" x2="297.9122" y2="67.7837">
	<stop  offset="0" style="stop-color:#4762B2"/>
	<stop  offset="1" style="stop-color:#4AC2C0"/>
</linearGradient>
<path class="st15" d="M311.1,56.2h-6.5L295,85.3h5.5l2.7-8.7h8.7l3.1,8.7h6L311.1,56.2z M303.4,72.6l3.8-12.5l3.9,12.5H303.4z"/>
<linearGradient id="SVGID_16_" gradientUnits="userSpaceOnUse" x1="338.4095" y1="73.6056" x2="316.4655" y2="60.9363">
	<stop  offset="0" style="stop-color:#4762B2"/>
	<stop  offset="1" style="stop-color:#4AC2C0"/>
</linearGradient>
<path class="st16" d="M319.2,56.2h21.1v3.9c0,0-8.7-0.2-8.7,0s0,25.3,0,25.3h-4.8V60.1h-7.5v-3.9C319.3,56.2,319.2,56.2,319.2,56.2z
	"/>
<linearGradient id="SVGID_17_" gradientUnits="userSpaceOnUse" x1="408.8394" y1="75.3859" x2="391.9606" y2="65.6409">
	<stop  offset="0" style="stop-color:#4762B2"/>
	<stop  offset="1" style="stop-color:#4AC2C0"/>
</linearGradient>
<polygon class="st17" points="397.7,55.7 403.4,55.7 403,85.5 397.7,85.5 "/>
<linearGradient id="SVGID_18_" gradientUnits="userSpaceOnUse" x1="458.985" y1="76.8666" x2="437.1451" y2="64.2573">
	<stop  offset="0" style="stop-color:#4762B2"/>
	<stop  offset="1" style="stop-color:#4AC2C0"/>
</linearGradient>
<path class="st18" d="M455.9,56.4c0,0,0,0.2,0,0.3c0,0.3,0,0.5-0.2,0.9c-0.2,0.9-0.2,1.5-0.3,2.4c0,0.3,0,0.9-0.2,1.2
	c-0.7,0-1.5-0.3-2.1-0.7c-7.2-2.2-11.5,2.9-6.2,5.3c0.9,0.3,1.7,0.7,2.6,1.2c1.7,0.7,3.3,1.7,4.8,2.7c1.2,1,2.4,2.1,2.9,3.6
	c1.2,2.9,0.5,6.5-1.4,8.9c-1.2,1.4-2.7,2.4-4.5,2.9c-1.5,0.3-3.1,0.5-4.5,0.3c-2.7,0-5.5-0.3-8-1.4l0.9-4.6c2.6,0.5,5.3,1,7.9,0.5
	c1.9-0.3,4.3-1.4,4.3-3.6c0-1.2-0.9-2.4-1.9-3.1s-2.2-1.2-3.4-1.5c-2.1-0.9-4.1-2.1-5.8-3.6c-0.5-0.5-1-1-1.4-1.7
	c-0.2-0.5-0.3-1.2-0.3-1.9c0-1.4,0-2.7,0.3-3.9c0.7-2.1,2.6-3.8,4.5-4.6c2.4-1,5.1-1,7.7-0.7c1.2,0.2,2.4,0.3,3.6,0.7
	C455.3,56,455.9,56.2,455.9,56.4z"/>
<rect x="-3" y="-9.1" class="st19" width="500" height="265.8"/>
</svg>
